<svg xmlns="http://www.w3.org/2000/svg" xmlns:xlink="http://www.w3.org/1999/xlink" x="0px" y="0px" fill="#FFFFFF" viewBox="0 0 1400 180" enable-background="new 0 0 1400 180"><g><path d="M265.834,122.963c-13.786,6.01-33.621,16.963-43.303,25.63c-4.949-4.772-11.551-9.192-20.15-9.192 c-8.062,0-11.666,2.918-11.666,5.658c0,1.7,3.358,1.436,3.358,3.889c0,1.129-0.971,2.476-2.474,2.476 c-1.887,0-3.712-2.784-3.712-6.188c0-6.362,2.812-11.952,12.902-22.446l17.676-18.384c-7.298-3.732-17.941-8.385-23.861-10.956 v-0.884c1.717-0.491,3.005-2.208,3.005-4.246v-15.2c0-1.666-0.884-4.239-3.005-4.946v-0.707 c14.847-5.305,33.759-15.909,44.54-23.511c2.417,2.689,8.748,8.308,15.555,8.308c5.735,0,7.07-2.77,7.07-4.771 c0-1.139-2.121-1.766-2.121-3.536c0-1.51,0.811-2.119,1.944-2.119c1.692,0,3.181,1.558,3.181,4.772 c0,9.546-9.174,21.74-23.507,21.74c-9.434,0-15.2-4.241-19.619-10.429l-0.353,0.176v23.685l13.078,6.363l5.833-6.186 c6.12,3.872,18.873,10.719,25.629,13.61v0.529c-1.322,0.559-3.003,2.123-3.003,4.949v16.789c0,2.395,1.767,3.893,3.003,4.422 V122.963z M239.144,134.1v-28.457c-3.357-1.592-9.049-4.309-12.371-6.011l-27.396,28.281l0.176,0.176 c4.148-2.257,9.19-4.595,17.676-4.595c8.662,0,17.419,6.253,21.562,10.783L239.144,134.1z"/><path d="M184.707,122.963c-11.823,4.834-34.645,16.969-44.542,25.63c-10.429-7.6-25.672-17.606-35.351-23.155 v-0.528c2.475-0.884,3.182-2.828,3.182-5.834V74.533c0-4.102-1.061-5.654-3.182-6.361v-0.707 c16.261-6.01,31.64-14.494,44.718-23.511c9.014,6.717,24.746,16.616,35.175,22.804v0.707c-1.887,0.755-3.183,2.651-3.183,5.653 v44.188c0,3.183,1.238,4.422,3.183,4.95V122.963L184.707,122.963z M157.84,134.63V75.947c-8.131-4.419-20.15-13.257-25.807-18.204 l-0.353,0.176v59.388c7.777,4.244,19.443,12.021,25.806,17.5L157.84,134.63z"/><path d="M103.223,119.074l-16.261,30.048c-9.08-6.329-23.691-10.251-36.058-10.251 c-24.392,0-41.184,4.42-49.844,9.898L0,147.531c7.735-6.768,20.681-17.646,20.681-42.422c0-10.438-4.205-22.271-7.247-30.045 c-3.527-9.012-6.187-13.581-6.187-26.159c0-21.895,11.733-34.317,30.224-43.659l1.415,1.769 c-6.381,5.309-9.308,12.181-10.252,19.087L58.151,1.358c7.569,10.633,14.717,14.67,24.039,14.67c7.651,0,9.898-3.316,9.898-6.009 c0-1.946-2.652-2.338-2.652-4.243c0-1.807,1.246-2.298,2.298-2.298c2.346,0,3.004,3.028,3.004,5.302 c0,14.912-11.842,25.277-25.099,25.277c-2.298,0-4.37,0.079-5.833-0.177v83.779c10.653,0,23.686,3.536,33.054,7.602l4.066-7.245 L103.223,119.074z M62.039,117.66V33.67c-11.226-1.479-18.376-9.162-22.271-13.753l-11.135,9.014 c0.061,12.578,3.646,23.559,7.955,33.583c3.938,9.167,8.307,21.119,8.307,29.341c0,13.543-7.424,22.094-25.275,38.886l0.53,0.528 C30.755,123.316,47.79,117.902,62.039,117.66z"/><path d="M883.883,122.963c-13.787,6.01-33.621,16.963-43.305,25.63c-4.949-4.772-11.551-9.192-20.15-9.192 c-8.062,0-11.664,2.918-11.664,5.658c0,1.7,3.357,1.436,3.357,3.889c0,1.129-0.971,2.476-2.475,2.476 c-1.888,0-3.716-2.784-3.716-6.188c0-6.362,2.816-11.952,12.906-22.446l17.674-18.384c-7.297-3.732-17.938-8.385-23.86-10.956 v-0.884c1.721-0.491,3.008-2.208,3.008-4.246v-15.2c0-1.666-0.887-4.239-3.008-4.946v-0.707 c14.848-5.305,33.762-15.909,44.541-23.511c2.418,2.689,8.748,8.308,15.557,8.308c5.736,0,7.072-2.77,7.072-4.771 c0-1.139-2.123-1.766-2.123-3.536c0-1.51,0.809-2.119,1.945-2.119c1.688,0,3.18,1.558,3.18,4.772c0,9.546-9.176,21.74-23.508,21.74 c-9.435,0-15.201-4.241-19.621-10.429l-0.354,0.176v23.685l13.08,6.363l5.832-6.186c6.121,3.872,18.873,10.719,25.631,13.61v0.529 c-1.323,0.559-3.004,2.123-3.004,4.949v16.789c0,2.395,1.767,3.893,3.004,4.422L883.883,122.963L883.883,122.963z M857.191,134.1 v-28.457c-3.355-1.592-9.05-4.309-12.369-6.011l-27.398,28.281l0.176,0.176c4.148-2.257,9.189-4.595,17.677-4.595 c8.661,0,17.42,6.253,21.563,10.783L857.191,134.1z"/><path d="M806.287,76.303l-41.891,26.156v17.854c5.307,2.299,17.854,8.483,23.51,12.194l9.014-9.366 c2.479-2.576,1.756-6.896,5.303-6.896c1.24,0,2.121,0.709,2.121,2.121c0,1.507-1.041,2.28-1.768,3.006l-27.396,27.22 c-9.369-6.007-28.28-14.849-37.649-18.734v-0.709c1.514-0.566,3.184-1.59,3.184-5.479V74.006c0-4.067-1.465-5.508-3.184-5.834 v-0.707c14.141-4.595,35.707-16.085,45.955-23.333C790.557,54.738,799.57,67.816,806.287,76.303z M784.898,87.081 c-4.945-6.895-14.492-20.147-19.972-28.279l-0.53,0.179v40.828L784.898,87.081z"/><path d="M686.627,76.303l-41.891,26.156v17.854c5.303,2.299,17.853,8.483,23.508,12.194l9.015-9.366 c2.479-2.576,1.755-6.896,5.302-6.896c1.237,0,2.121,0.709,2.121,2.121c0,1.507-1.038,2.28-1.767,3.006l-27.397,27.22 c-9.367-6.007-28.277-14.849-37.646-18.734v-0.709c1.513-0.566,3.181-1.59,3.181-5.479V74.006c0-4.067-1.463-5.508-3.181-5.834 v-0.707c14.141-4.595,35.702-16.085,45.954-23.333C670.896,54.738,679.911,67.816,686.627,76.303z M665.239,87.081 c-4.95-6.895-14.493-20.147-19.974-28.279l-0.529,0.179v40.828L665.239,87.081z"/>	<path d="M611.861,140.639c-0.567,22.444-19.919,38.004-40.883,38.004c-16.4,0-20.221-8.484-35.122-8.484 c-8.676,0-21.638,2.812-24.09,5.831l-1.061-0.705c0.883-16.263,20.518-25.277,35.227-25.277c16.216,0,28.089,10.429,45.249,10.429 c10.958,0,16.615-5.832,17.676-11.664l-0.177-0.354c-2.298,1.413-5.303,3.182-9.723,3.182c-8.838,0-18.382-6.188-19.972-16.969 c-4.223,2.939-13.7,10.325-17.854,13.963c-10.358-6.689-27.051-15.117-35.175-18.734v-0.709c1.694-0.558,2.829-2.709,2.829-4.771 V73.828c0-3.013-1.113-5.28-3.182-5.656v-0.707c15.023-5.48,34.29-15.555,44.719-23.687c9.041,7.152,25.501,17.258,35.175,22.804 v0.883c-2.121,0.883-3.182,2.298-3.182,7.068v54.615c0,7.012,0.586,11.845,5.655,11.845c0.807,0,1.768-1.237,2.652-1.593 L611.861,140.639z M578.63,132.684V75.947c-6.892-3.888-18.205-11.665-25.805-18.204l-0.354,0.176v62.039 c6.895,3.183,19.09,10.429,24.217,14.319L578.63,132.684z"/>	<path d="M426.271,127.913l-22.448,20.68c-6.716-4.772-12.549-8.661-21.034-13.963v-0.886 c1.924-0.699,2.983-2.666,3.005-4.947c0.011-1.004-0.193-2.131-0.53-3.184l-6.893-21.562h-47.546l-6.363,18.029 c9.823,0,16.423,1.873,21.211,3.887l3.712-6.893l2.296,1.238l-15.376,28.457c-6.434-3.662-13.695-6.541-21.917-6.541 c-9.698,0-16.927,2.646-20.504,6.013c-0.716,0.673-1.936,0.386-1.414-1.062c4.792-13.285,14.504-23.968,29.519-24.923 l32.875-91.029c-3.876-11.272-8.308-13.785-16.613-13.785c-7.782,0-15.378,3.532-15.378,13.08c0,4.417,4.241,4.021,4.241,7.246 c0,1.128-0.97,2.473-2.474,2.473c-2.828,0-4.773-3.888-4.773-11.312c0-16.792,12.904-25.804,26.868-25.804 c12.724,0,18.027,4.063,21.916,9.365c1.414-4.419,5.774-7.346,9.544-7.953l0.53,0.707c-2.356,2.923-3.712,5.48-3.712,9.192 c0,1.93,1.41,6.222,1.945,7.775l35.705,103.399l6.893,4.598l4.949-4.42L426.271,127.913z M373.951,90.441l-18.206-55.853 l-19.971,55.853H373.951z"/><path d="M1394.697,122.963c-13.787,6.01-33.621,16.963-43.303,25.63c-4.951-4.772-11.552-9.192-20.15-9.192 c-8.062,0-11.668,2.918-11.668,5.658c0,1.7,3.361,1.436,3.361,3.889c0,1.129-0.972,2.476-2.478,2.476 c-1.887,0-3.711-2.784-3.711-6.188c0-6.362,2.813-11.952,12.904-22.446l17.674-18.384c-7.297-3.732-17.941-8.385-23.859-10.956 v-0.884c1.717-0.491,3.002-2.208,3.002-4.246v-15.2c0-1.666-0.881-4.239-3.002-4.946v-0.707 c14.844-5.305,33.758-15.909,44.537-23.511c2.42,2.689,8.746,8.308,15.555,8.308c5.736,0,7.07-2.77,7.07-4.771 c0-1.139-2.121-1.766-2.121-3.536c0-1.51,0.812-2.119,1.945-2.119c1.69,0,3.182,1.558,3.182,4.772 c0,9.546-9.174,21.74-23.508,21.74c-9.437,0-15.203-4.241-19.617-10.429l-0.354,0.176v23.685l13.075,6.363l5.832-6.186 c6.121,3.872,18.873,10.719,25.632,13.61v0.529c-1.324,0.559-3.005,2.123-3.005,4.949v16.789c0,2.395,1.769,3.893,3.005,4.422 L1394.697,122.963L1394.697,122.963z M1368.006,134.1v-28.457c-3.354-1.592-9.047-4.309-12.373-6.011l-27.393,28.281l0.176,0.176 c4.146-2.257,9.189-4.595,17.674-4.595c8.664,0,17.42,6.253,21.562,10.783L1368.006,134.1z"/><path d="M1317.104,76.303l-41.893,26.156v17.854c5.305,2.299,17.855,8.483,23.508,12.194l9.017-9.366 c2.479-2.576,1.758-6.896,5.307-6.896c1.234,0,2.121,0.709,2.121,2.121c0,1.507-1.041,2.28-1.771,3.006l-27.397,27.22 c-9.367-6.007-28.281-14.849-37.647-18.734v-0.709c1.514-0.566,3.182-1.59,3.182-5.479V74.006c0-4.067-1.463-5.508-3.182-5.834 v-0.707c14.141-4.595,35.704-16.085,45.959-23.333C1301.373,54.738,1310.387,67.816,1317.104,76.303z M1295.715,87.081 c-4.947-6.895-14.492-20.147-19.971-28.279l-0.533,0.179v40.828L1295.715,87.081z"/><path d="M1050.209,14.79c0,14.229-10.896,21.876-22.627,23.687v88.907c14.318-7.956,18.916-16.731,18.916-20.856 c0-0.895-1.77-2.101-1.77-3.715c0-1.252,1.01-2.297,2.12-2.297c1.613,0,2.298,1.414,2.298,4.064 c0,20.682-19.796,48.609-61.863,48.609c-31.562,0-58.33-24.94-58.33-56.916c0-45.604,38.18-61.333,64.691-62.924 c-9.72-2.121-25.246-5.478-38.179-5.478c-15.024,0-27.396,8.838-27.396,16.789c0,3.007,2.475,3.536,2.475,5.658 c0,1.169-0.512,2.651-2.123,2.651c-2.473,0-2.824-2.312-2.824-4.241c0-17.323,10.652-42.953,36.761-42.953 c26.467,0,46.563,9.545,67.17,9.545c13.623,0,17.674-4.063,17.146-12.019l2.297,0.883 C1049.498,5.424,1050.209,9.486,1050.209,14.79z M1025.816,128.621V38.83c-1.062,0.074-2.979,0.178-4.066,0.178 c-6.074,0-16.615-2.298-23.51-4.243c-20.504,3.712-44.365,21.013-44.365,53.554c0,27.912,19.854,45.781,48.08,45.781 C1011.5,134.1,1019.955,132.104,1025.816,128.621z"/><path d="M17.498,148.593"/><path d="M1246.756,129.148c-5.658,4.773-16.438,14.319-21.742,19.443c-4.948-4.419-15.201-12.55-21.562-17.146 v-0.706c1.838-0.621,3.184-2.38,3.184-6.539V75.064c-5.127-3.712-15.203-10.075-20.68-13.609l-3.89,3.356v61.862l8.658,6.365 c0,0-12.018,10.43-17.319,15.554c-4.775-4.595-11.845-9.898-18.205-14.67v-0.708c1.838-0.621,3.182-2.379,3.182-6.541V75.064 c-5.127-3.712-15.203-10.075-20.682-13.609l-4.771,4.063v61.155l8.658,6.365c0,0-11.678,9.764-17.32,15.378 c-5.303-4.771-11.141-9.084-18.204-14.494v-0.531c1.985-0.812,3.182-3.188,3.182-6.008V68.172l-7.6-6.717l-4.773,4.063 l-1.768-1.941c5.303-4.419,14.141-12.197,21.741-19.445l16.084,14.494v4.064l21.916-18.559 c6.894,4.949,27.224,17.853,27.224,17.853l21.033-17.853c6.713,5.305,22.09,14.849,30.573,19.797v0.707 c-2.823,0.757-3.18,4.419-3.18,6.363V124.2l9.721,7.245l4.596-4.24L1246.756,129.148z"/><path d="M1095.809,24.867c-5.653,7.953-10.25,11.663-19.442,11.663c-6.188,0-10.427-3.356-15.906-9.365l-4.42,4.063 l-1.767-2.12l21.562-19.265c6.188,12.548,14.141,14.492,19.619,14.316L1095.809,24.867z"/><path d="M1101.111,129.148c-6.187,5.306-16.099,13.832-21.74,19.443c-5.303-4.771-14.32-11.732-21.385-17.146 v-0.528c1.981-0.812,3.18-3.188,3.18-6.01V68.172l-7.6-6.717l-4.771,4.063l-1.77-1.941c5.305-4.419,14.141-12.197,21.737-19.445 l19.271,17.147v0.705c-2.299,0.706-3.187,2.144-3.187,7.424v54.793l9.724,7.068l4.596-4.063L1101.111,129.148z"/><path d="M733.287,129.148c-6.186,5.306-16.094,13.832-21.736,19.443c-5.307-4.771-14.324-11.732-21.389-17.146 v-0.528c1.986-0.812,3.181-3.188,3.181-6.01V33.174l-7.6-6.717l-4.773,4.066l-1.767-1.944c5.303-4.419,12.903-12.196,20.504-19.442 l20.501,17.145v0.708c-2.297,0.705-3.18,2.142-3.18,7.422v89.79l9.721,7.067l4.596-4.062L733.287,129.148z"/><path d="M521.54,129.148c-5.656,4.773-16.439,14.319-21.741,19.443c-4.949-4.419-15.021-12.55-21.385-17.146v-0.706 c1.837-0.621,3.182-2.38,3.182-6.539V75.064c-5.126-3.712-15.201-10.075-20.681-13.609l-4.772,4.063v61.155l8.662,6.365 c0,0-11.678,9.764-17.322,15.378c-5.303-4.771-11.14-9.084-18.205-14.494v-0.531c1.986-0.812,3.182-3.188,3.182-6.008V68.172 l-7.601-6.717l-4.772,4.063l-1.769-1.941c5.304-4.419,14.142-12.197,21.741-19.445l16.084,14.494v4.064l21.918-18.559 c6.718,5.305,21.915,14.849,30.4,19.797v0.707c-2.825,0.757-3.182,4.419-3.182,6.363V124.2l9.722,7.245l4.595-4.24L521.54,129.148z "/><path d="M1017.686,46.607c0,1.238-1.055,1.767-1.944,1.767c-1.523,0-2.828-3.005-7.07-3.005 c-6.242,0-11.49,5.775-11.49,12.019c0,16.44,16.263,23.146,16.263,41.891c0,15.722-15.392,24.797-31.285,26.867l-3.004-2.121 c8.709-1.135,12.901-4.08,12.901-14.672c0-14.315-14.848-25.935-14.848-42.771c0-13.63,12.727-24.218,30.227-24.218 c3.404,0,6.814,1.022,8.66,1.945C1017.154,44.838,1017.686,45.547,1017.686,46.607z"/><path d="M1400,148.593"/></g></svg>